<?xml version="1.0" encoding="utf-8"?>
<!-- Generator: Adobe Illustrator 27.7.0, SVG Export Plug-In . SVG Version: 6.00 Build 0)  -->
<svg version="1.1" id="Your_design" xmlns="http://www.w3.org/2000/svg" xmlns:xlink="http://www.w3.org/1999/xlink" x="0px"
	 y="0px" viewBox="0 0 800 250" style="enable-background:new 0 0 800 250;" xml:space="preserve">
<style type="text/css">
	.st0{fill:#FFFFFF;}
</style>
<g>
	<g>
		<path class="st0" d="M321.7,187.6c-7.6,10.8-20.5,16.8-36.1,16.8c-21.3,0-37.1-12.4-41.2-30.9h141.4
			c9.3-60.7-34.6-108.1-99.8-108.1c-58.3,0-100.9,38.4-100.9,91.3c0,53.2,42.2,91.6,100.9,91.6c37.4,0,68.8-15.6,86.7-41.6
			L321.7,187.6z M286,109c22,0,37.8,12.3,41.9,31.6h-83.4C248.6,121.7,264.4,109,286,109z"/>
	</g>
	<g>
		<path class="st0" d="M532.8,187.6c-7.6,10.8-20.5,16.8-36.1,16.8c-21.3,0-37-12.4-41.2-30.9h141.4c9.3-60.7-34.7-108.1-99.8-108.1
			c-58.3,0-100.9,38.4-100.9,91.3c0,53.2,42.2,91.6,100.9,91.6c37.3,0,68.8-15.6,86.7-41.6L532.8,187.6z M497.1,109
			c22,0,37.8,12.3,41.8,31.6h-83.4C459.7,121.7,475.5,109,497.1,109z"/>
	</g>
	<path class="st0" d="M68.4,181.4v62.4H6V3.7h62.4v123.9c22.3-1.4,32.6-11.3,59-57.6h72.1c-36,61.1-48.1,71-88.2,80.3v10.3
		c39.6,9.1,55.9,20.3,93.7,83.4h-73.8C103.1,193.4,92.1,182.8,68.4,181.4z"/>
	<path class="st0" d="M607.3,69.9h64.8l-0.1,2.3c-1.7,14.1-5.1,24-13.4,37.8l9.2,4.9c15.1-34.7,38-48.4,66.1-48.4
		c38.1,0,60.1,27.1,60.1,73.8v103.6h-62.5v-90.6c0-23.7-10.6-36.4-30.9-36.4c-20.3,0-30.9,12.7-30.9,36.4v90.6h-62.5L607.3,69.9
		L607.3,69.9z"/>
</g>
</svg>
