<?xml version="1.0" encoding="utf-8"?>
<!-- Generator: Adobe Illustrator 27.7.0, SVG Export Plug-In . SVG Version: 6.00 Build 0)  -->
<svg version="1.1" id="Your_design" xmlns="http://www.w3.org/2000/svg" xmlns:xlink="http://www.w3.org/1999/xlink" x="0px"
	 y="0px" viewBox="0 0 800 250" style="enable-background:new 0 0 800 250;" xml:space="preserve">
<style type="text/css">
	.st0{fill:#090909;}
</style>
<g>
	<g>
		<path class="st0" d="M321.73,187.61c-7.58,10.75-20.49,16.8-36.1,16.8c-21.26,0-37.05-12.35-41.16-30.87h141.35
			c9.28-60.74-34.65-108.09-99.83-108.09c-58.34,0-100.89,38.42-100.89,91.27c0,53.18,42.22,91.62,100.89,91.62
			c37.35,0,68.83-15.64,86.68-41.56L321.73,187.61z M285.99,109.02c21.96,0,37.75,12.35,41.85,31.57h-83.37
			C248.58,121.72,264.37,109.02,285.99,109.02z"/>
	</g>
	<g>
		<path class="st0" d="M532.84,187.61c-7.58,10.75-20.49,16.8-36.1,16.8c-21.26,0-37.05-12.35-41.16-30.87h141.35
			c9.28-60.74-34.65-108.09-99.83-108.09c-58.34,0-100.89,38.42-100.89,91.27c0,53.18,42.22,91.62,100.89,91.62
			c37.35,0,68.83-15.64,86.68-41.56L532.84,187.61z M497.11,109.02c21.96,0,37.75,12.35,41.85,31.57h-83.37
			C459.7,121.72,475.48,109.02,497.11,109.02z"/>
	</g>
	<path class="st0" d="M68.45,181.43v62.45H6V3.67h62.45v123.87c22.32-1.37,32.61-11.32,59.04-57.64h72.06
		c-36.04,61.08-48.12,71-88.21,80.29v10.26c39.64,9.1,55.94,20.28,93.68,83.42h-73.76C103.12,193.43,92.14,182.8,68.45,181.43z"/>
	<path class="st0" d="M607.33,69.9h64.82l-0.14,2.3c-1.7,14.07-5.14,24.01-13.38,37.75l9.18,4.87
		c15.12-34.66,37.98-48.36,66.12-48.36c38.11,0,60.07,27.12,60.07,73.78v103.63h-62.47v-90.58c0-23.68-10.62-36.38-30.87-36.38
		c-20.26,0-30.87,12.7-30.87,36.38v90.58h-62.45V69.9z"/>
</g>
</svg>
